<svg width="157" height="41" viewBox="0 0 157 41" fill="none" xmlns="http://www.w3.org/2000/svg">
<line y1="-2.5" x2="7.98961" y2="-2.5" transform="matrix(0.391228 0.920294 -0.909731 0.415198 0.609619 17.5)" stroke="#2B589F" stroke-width="5"/>
<line y1="-3" x2="10.9029" y2="-3" transform="matrix(-0.402914 0.915238 -0.904108 -0.427305 8.0274 15.0249)" stroke="#1A407E" stroke-width="6"/>
<line y1="-3.5" x2="21.9232" y2="-3.5" transform="matrix(0.551042 0.834477 -0.815791 0.578347 8.0274 14.8601)" stroke="#2A61B9" stroke-width="7"/>
<path d="M23.6438 34L31 0.999972" stroke="url(#paint0_linear_134_4)" stroke-width="7"/>
<mask id="path-5-outside-1_134_4" maskUnits="userSpaceOnUse" x="39" y="11" width="74" height="22" fill="black">
<rect fill="white" x="39" y="11" width="74" height="22"/>
<path d="M59.34 12.72L55.7 27H52.26L50.32 19.5C50.28 19.3533 50.2267 19.1333 50.16 18.84C50.1067 18.5467 50.04 18.2267 49.96 17.88C49.8933 17.5333 49.8333 17.2067 49.78 16.9C49.7267 16.58 49.6867 16.3333 49.66 16.16C49.6467 16.3333 49.6067 16.58 49.54 16.9C49.4867 17.2067 49.4267 17.5333 49.36 17.88C49.2933 18.2133 49.2267 18.5333 49.16 18.84C49.0933 19.1333 49.04 19.36 49 19.52L47.08 27H43.64L40 12.72H42.98L44.8 20.52C44.8533 20.7467 44.9133 21.0267 44.98 21.36C45.0467 21.68 45.1133 22.02 45.18 22.38C45.2467 22.7267 45.3067 23.0667 45.36 23.4C45.4267 23.7333 45.4733 24.02 45.5 24.26C45.5267 24.0067 45.5667 23.72 45.62 23.4C45.6733 23.0667 45.7333 22.7333 45.8 22.4C45.8667 22.0533 45.9267 21.7333 45.98 21.44C46.0467 21.1333 46.1067 20.8933 46.16 20.72L48.24 12.72H51.1L53.18 20.72C53.22 20.8933 53.2733 21.1333 53.34 21.44C53.4067 21.7333 53.4733 22.0533 53.54 22.4C53.6067 22.7467 53.6667 23.0867 53.72 23.42C53.7733 23.74 53.8133 24.02 53.84 24.26C53.88 23.9267 53.94 23.5333 54.02 23.08C54.1 22.6133 54.1867 22.1467 54.28 21.68C54.3867 21.2133 54.4733 20.8267 54.54 20.52L56.36 12.72H59.34ZM65.3053 15.88C66.3186 15.88 67.1853 16.0733 67.9053 16.46C68.6386 16.8467 69.2053 17.4067 69.6053 18.14C70.0053 18.8733 70.2053 19.7733 70.2053 20.84V22.28H63.1653C63.192 23.12 63.4386 23.78 63.9053 24.26C64.3853 24.74 65.0453 24.98 65.8853 24.98C66.592 24.98 67.232 24.9133 67.8053 24.78C68.3786 24.6333 68.972 24.4133 69.5853 24.12V26.42C69.052 26.6867 68.4853 26.88 67.8853 27C67.2986 27.1333 66.5853 27.2 65.7453 27.2C64.652 27.2 63.6853 27 62.8453 26.6C62.0053 26.1867 61.3453 25.5667 60.8653 24.74C60.3853 23.9133 60.1453 22.8733 60.1453 21.62C60.1453 20.34 60.3586 19.28 60.7853 18.44C61.2253 17.5867 61.832 16.9467 62.6053 16.52C63.3786 16.0933 64.2786 15.88 65.3053 15.88ZM65.3253 18C64.752 18 64.272 18.1867 63.8853 18.56C63.512 18.9333 63.292 19.5133 63.2253 20.3H67.4053C67.4053 19.86 67.3253 19.4667 67.1653 19.12C67.0186 18.7733 66.792 18.5 66.4853 18.3C66.1786 18.1 65.792 18 65.3253 18ZM75.9017 27H72.9217V11.8H75.9017V27ZM86.9355 23.76C86.9355 24.4933 86.7621 25.12 86.4155 25.64C86.0688 26.1467 85.5488 26.5333 84.8555 26.8C84.1621 27.0667 83.3021 27.2 82.2755 27.2C81.5155 27.2 80.8621 27.1467 80.3155 27.04C79.7688 26.9467 79.2221 26.7867 78.6755 26.56V24.1C79.2621 24.3667 79.8955 24.5867 80.5755 24.76C81.2555 24.9333 81.8555 25.02 82.3755 25.02C82.9621 25.02 83.3755 24.9333 83.6155 24.76C83.8688 24.5867 83.9955 24.36 83.9955 24.08C83.9955 23.8933 83.9421 23.7267 83.8355 23.58C83.7421 23.4333 83.5288 23.2667 83.1955 23.08C82.8621 22.8933 82.3421 22.6533 81.6355 22.36C80.9555 22.0667 80.3955 21.78 79.9555 21.5C79.5155 21.2067 79.1888 20.86 78.9755 20.46C78.7621 20.0467 78.6555 19.5333 78.6555 18.92C78.6555 17.9067 79.0488 17.1467 79.8355 16.64C80.6221 16.1333 81.6688 15.88 82.9755 15.88C83.6555 15.88 84.3021 15.9467 84.9155 16.08C85.5288 16.2133 86.1621 16.4333 86.8155 16.74L85.9155 18.88C85.5555 18.72 85.2088 18.58 84.8755 18.46C84.5421 18.34 84.2155 18.2467 83.8955 18.18C83.5888 18.1133 83.2688 18.08 82.9355 18.08C82.4955 18.08 82.1621 18.14 81.9355 18.26C81.7221 18.38 81.6155 18.56 81.6155 18.8C81.6155 18.9733 81.6688 19.1333 81.7755 19.28C81.8955 19.4133 82.1155 19.56 82.4355 19.72C82.7688 19.88 83.2555 20.0933 83.8955 20.36C84.5221 20.6133 85.0621 20.88 85.5155 21.16C85.9688 21.4267 86.3155 21.7667 86.5555 22.18C86.8088 22.58 86.9355 23.1067 86.9355 23.76ZM95.6369 15.88C96.8635 15.88 97.8569 16.36 98.6169 17.32C99.3769 18.2667 99.7569 19.6667 99.7569 21.52C99.7569 22.76 99.5769 23.8067 99.2169 24.66C98.8569 25.5 98.3635 26.1333 97.7369 26.56C97.1102 26.9867 96.3835 27.2 95.5569 27.2C95.0369 27.2 94.5835 27.1333 94.1969 27C93.8235 26.8667 93.5035 26.6933 93.2369 26.48C92.9702 26.2667 92.7369 26.04 92.5369 25.8H92.3769C92.4302 26.0533 92.4702 26.32 92.4969 26.6C92.5235 26.8667 92.5369 27.1333 92.5369 27.4V31.8H89.5569V16.08H91.9769L92.3969 17.5H92.5369C92.7369 17.2067 92.9769 16.94 93.2569 16.7C93.5369 16.4467 93.8702 16.2467 94.2569 16.1C94.6569 15.9533 95.1169 15.88 95.6369 15.88ZM94.6769 18.26C94.1569 18.26 93.7435 18.3667 93.4369 18.58C93.1302 18.7933 92.9035 19.12 92.7569 19.56C92.6235 19.9867 92.5502 20.5267 92.5369 21.18V21.5C92.5369 22.2067 92.6035 22.8067 92.7369 23.3C92.8702 23.78 93.0969 24.1467 93.4169 24.4C93.7369 24.6533 94.1702 24.78 94.7169 24.78C95.1702 24.78 95.5435 24.6533 95.8369 24.4C96.1302 24.1467 96.3502 23.7733 96.4969 23.28C96.6435 22.7867 96.7169 22.1867 96.7169 21.48C96.7169 20.4133 96.5502 19.6133 96.2169 19.08C95.8969 18.5333 95.3835 18.26 94.6769 18.26ZM100.562 16.08H103.823L105.883 22.22C105.949 22.42 106.003 22.62 106.043 22.82C106.096 23.02 106.136 23.2267 106.163 23.44C106.203 23.6533 106.229 23.88 106.243 24.12H106.303C106.343 23.7733 106.396 23.4467 106.463 23.14C106.543 22.82 106.629 22.5133 106.723 22.22L108.743 16.08H111.943L107.323 28.4C107.043 29.1467 106.676 29.7733 106.223 30.28C105.783 30.7867 105.269 31.1667 104.683 31.42C104.096 31.6733 103.456 31.8 102.763 31.8C102.429 31.8 102.136 31.78 101.882 31.74C101.643 31.7133 101.429 31.68 101.243 31.64V29.28C101.389 29.3067 101.563 29.3333 101.763 29.36C101.976 29.3867 102.196 29.4 102.423 29.4C102.836 29.4 103.189 29.3133 103.483 29.14C103.789 28.9667 104.043 28.7267 104.243 28.42C104.443 28.1267 104.603 27.8067 104.723 27.46L104.903 26.92L100.562 16.08Z"/>
</mask>
<path d="M59.34 12.72L55.7 27H52.26L50.32 19.5C50.28 19.3533 50.2267 19.1333 50.16 18.84C50.1067 18.5467 50.04 18.2267 49.96 17.88C49.8933 17.5333 49.8333 17.2067 49.78 16.9C49.7267 16.58 49.6867 16.3333 49.66 16.16C49.6467 16.3333 49.6067 16.58 49.54 16.9C49.4867 17.2067 49.4267 17.5333 49.36 17.88C49.2933 18.2133 49.2267 18.5333 49.16 18.84C49.0933 19.1333 49.04 19.36 49 19.52L47.08 27H43.64L40 12.72H42.98L44.8 20.52C44.8533 20.7467 44.9133 21.0267 44.98 21.36C45.0467 21.68 45.1133 22.02 45.18 22.38C45.2467 22.7267 45.3067 23.0667 45.36 23.4C45.4267 23.7333 45.4733 24.02 45.5 24.26C45.5267 24.0067 45.5667 23.72 45.62 23.4C45.6733 23.0667 45.7333 22.7333 45.8 22.4C45.8667 22.0533 45.9267 21.7333 45.98 21.44C46.0467 21.1333 46.1067 20.8933 46.16 20.72L48.24 12.72H51.1L53.18 20.72C53.22 20.8933 53.2733 21.1333 53.34 21.44C53.4067 21.7333 53.4733 22.0533 53.54 22.4C53.6067 22.7467 53.6667 23.0867 53.72 23.42C53.7733 23.74 53.8133 24.02 53.84 24.26C53.88 23.9267 53.94 23.5333 54.02 23.08C54.1 22.6133 54.1867 22.1467 54.28 21.68C54.3867 21.2133 54.4733 20.8267 54.54 20.52L56.36 12.72H59.34ZM65.3053 15.88C66.3186 15.88 67.1853 16.0733 67.9053 16.46C68.6386 16.8467 69.2053 17.4067 69.6053 18.14C70.0053 18.8733 70.2053 19.7733 70.2053 20.84V22.28H63.1653C63.192 23.12 63.4386 23.78 63.9053 24.26C64.3853 24.74 65.0453 24.98 65.8853 24.98C66.592 24.98 67.232 24.9133 67.8053 24.78C68.3786 24.6333 68.972 24.4133 69.5853 24.12V26.42C69.052 26.6867 68.4853 26.88 67.8853 27C67.2986 27.1333 66.5853 27.2 65.7453 27.2C64.652 27.2 63.6853 27 62.8453 26.6C62.0053 26.1867 61.3453 25.5667 60.8653 24.74C60.3853 23.9133 60.1453 22.8733 60.1453 21.62C60.1453 20.34 60.3586 19.28 60.7853 18.44C61.2253 17.5867 61.832 16.9467 62.6053 16.52C63.3786 16.0933 64.2786 15.88 65.3053 15.88ZM65.3253 18C64.752 18 64.272 18.1867 63.8853 18.56C63.512 18.9333 63.292 19.5133 63.2253 20.3H67.4053C67.4053 19.86 67.3253 19.4667 67.1653 19.12C67.0186 18.7733 66.792 18.5 66.4853 18.3C66.1786 18.1 65.792 18 65.3253 18ZM75.9017 27H72.9217V11.8H75.9017V27ZM86.9355 23.76C86.9355 24.4933 86.7621 25.12 86.4155 25.64C86.0688 26.1467 85.5488 26.5333 84.8555 26.8C84.1621 27.0667 83.3021 27.2 82.2755 27.2C81.5155 27.2 80.8621 27.1467 80.3155 27.04C79.7688 26.9467 79.2221 26.7867 78.6755 26.56V24.1C79.2621 24.3667 79.8955 24.5867 80.5755 24.76C81.2555 24.9333 81.8555 25.02 82.3755 25.02C82.9621 25.02 83.3755 24.9333 83.6155 24.76C83.8688 24.5867 83.9955 24.36 83.9955 24.08C83.9955 23.8933 83.9421 23.7267 83.8355 23.58C83.7421 23.4333 83.5288 23.2667 83.1955 23.08C82.8621 22.8933 82.3421 22.6533 81.6355 22.36C80.9555 22.0667 80.3955 21.78 79.9555 21.5C79.5155 21.2067 79.1888 20.86 78.9755 20.46C78.7621 20.0467 78.6555 19.5333 78.6555 18.92C78.6555 17.9067 79.0488 17.1467 79.8355 16.64C80.6221 16.1333 81.6688 15.88 82.9755 15.88C83.6555 15.88 84.3021 15.9467 84.9155 16.08C85.5288 16.2133 86.1621 16.4333 86.8155 16.74L85.9155 18.88C85.5555 18.72 85.2088 18.58 84.8755 18.46C84.5421 18.34 84.2155 18.2467 83.8955 18.18C83.5888 18.1133 83.2688 18.08 82.9355 18.08C82.4955 18.08 82.1621 18.14 81.9355 18.26C81.7221 18.38 81.6155 18.56 81.6155 18.8C81.6155 18.9733 81.6688 19.1333 81.7755 19.28C81.8955 19.4133 82.1155 19.56 82.4355 19.72C82.7688 19.88 83.2555 20.0933 83.8955 20.36C84.5221 20.6133 85.0621 20.88 85.5155 21.16C85.9688 21.4267 86.3155 21.7667 86.5555 22.18C86.8088 22.58 86.9355 23.1067 86.9355 23.76ZM95.6369 15.88C96.8635 15.88 97.8569 16.36 98.6169 17.32C99.3769 18.2667 99.7569 19.6667 99.7569 21.52C99.7569 22.76 99.5769 23.8067 99.2169 24.66C98.8569 25.5 98.3635 26.1333 97.7369 26.56C97.1102 26.9867 96.3835 27.2 95.5569 27.2C95.0369 27.2 94.5835 27.1333 94.1969 27C93.8235 26.8667 93.5035 26.6933 93.2369 26.48C92.9702 26.2667 92.7369 26.04 92.5369 25.8H92.3769C92.4302 26.0533 92.4702 26.32 92.4969 26.6C92.5235 26.8667 92.5369 27.1333 92.5369 27.4V31.8H89.5569V16.08H91.9769L92.3969 17.5H92.5369C92.7369 17.2067 92.9769 16.94 93.2569 16.7C93.5369 16.4467 93.8702 16.2467 94.2569 16.1C94.6569 15.9533 95.1169 15.88 95.6369 15.88ZM94.6769 18.26C94.1569 18.26 93.7435 18.3667 93.4369 18.58C93.1302 18.7933 92.9035 19.12 92.7569 19.56C92.6235 19.9867 92.5502 20.5267 92.5369 21.18V21.5C92.5369 22.2067 92.6035 22.8067 92.7369 23.3C92.8702 23.78 93.0969 24.1467 93.4169 24.4C93.7369 24.6533 94.1702 24.78 94.7169 24.78C95.1702 24.78 95.5435 24.6533 95.8369 24.4C96.1302 24.1467 96.3502 23.7733 96.4969 23.28C96.6435 22.7867 96.7169 22.1867 96.7169 21.48C96.7169 20.4133 96.5502 19.6133 96.2169 19.08C95.8969 18.5333 95.3835 18.26 94.6769 18.26ZM100.562 16.08H103.823L105.883 22.22C105.949 22.42 106.003 22.62 106.043 22.82C106.096 23.02 106.136 23.2267 106.163 23.44C106.203 23.6533 106.229 23.88 106.243 24.12H106.303C106.343 23.7733 106.396 23.4467 106.463 23.14C106.543 22.82 106.629 22.5133 106.723 22.22L108.743 16.08H111.943L107.323 28.4C107.043 29.1467 106.676 29.7733 106.223 30.28C105.783 30.7867 105.269 31.1667 104.683 31.42C104.096 31.6733 103.456 31.8 102.763 31.8C102.429 31.8 102.136 31.78 101.882 31.74C101.643 31.7133 101.429 31.68 101.243 31.64V29.28C101.389 29.3067 101.563 29.3333 101.763 29.36C101.976 29.3867 102.196 29.4 102.423 29.4C102.836 29.4 103.189 29.3133 103.483 29.14C103.789 28.9667 104.043 28.7267 104.243 28.42C104.443 28.1267 104.603 27.8067 104.723 27.46L104.903 26.92L100.562 16.08Z" fill="black"/>
<path d="M59.34 12.72L59.9214 12.8682L60.1121 12.12H59.34V12.72ZM55.7 27V27.6H56.1662L56.2814 27.1482L55.7 27ZM52.26 27L51.6791 27.1503L51.7955 27.6H52.26V27ZM50.32 19.5L50.9009 19.3497L50.8989 19.3421L50.32 19.5ZM50.16 18.84L49.5697 18.9473L49.572 18.9602L49.5749 18.973L50.16 18.84ZM49.96 17.88L49.3708 17.9933L49.3729 18.0042L49.3754 18.0149L49.96 17.88ZM49.78 16.9L49.1881 16.9986L49.1889 17.0028L49.78 16.9ZM49.66 16.16L50.253 16.0688L49.0618 16.114L49.66 16.16ZM49.54 16.9L48.9526 16.7776L48.9506 16.7874L48.9489 16.7972L49.54 16.9ZM49.36 17.88L49.9484 17.9977L49.9492 17.9933L49.36 17.88ZM49.16 18.84L49.7451 18.973L49.7463 18.9675L49.16 18.84ZM49 19.52L49.5812 19.6692L49.5821 19.6655L49 19.52ZM47.08 27V27.6H47.5454L47.6612 27.1492L47.08 27ZM43.64 27L43.0586 27.1482L43.1738 27.6H43.64V27ZM40 12.72V12.12H39.2279L39.4186 12.8682L40 12.72ZM42.98 12.72L43.5643 12.5837L43.4561 12.12H42.98V12.72ZM44.8 20.52L44.2157 20.6563L44.2159 20.6574L44.8 20.52ZM44.98 21.36L44.3916 21.4777L44.3926 21.4824L44.98 21.36ZM45.18 22.38L44.59 22.4893L44.5908 22.4933L45.18 22.38ZM45.36 23.4L44.7675 23.4948L44.7694 23.5063L44.7717 23.5177L45.36 23.4ZM45.5 24.26L44.9037 24.3263L46.0967 24.3228L45.5 24.26ZM45.62 23.4L46.2118 23.4986L46.2125 23.4948L45.62 23.4ZM45.8 22.4L46.3884 22.5177L46.3892 22.5133L45.8 22.4ZM45.98 21.44L45.3937 21.3125L45.3915 21.3226L45.3897 21.3327L45.98 21.44ZM46.16 20.72L46.7335 20.8965L46.7374 20.8838L46.7407 20.871L46.16 20.72ZM48.24 12.72V12.12H47.7761L47.6593 12.569L48.24 12.72ZM51.1 12.72L51.6807 12.569L51.5639 12.12H51.1V12.72ZM53.18 20.72L53.7646 20.5851L53.7628 20.577L53.7607 20.569L53.18 20.72ZM53.34 21.44L52.7537 21.5675L52.7549 21.573L53.34 21.44ZM53.54 22.4L52.9508 22.5133L52.9508 22.5133L53.54 22.4ZM53.72 23.42L53.1275 23.5148L53.1282 23.5186L53.72 23.42ZM53.84 24.26L53.2437 24.3263L54.4357 24.3315L53.84 24.26ZM54.02 23.08L54.6109 23.1843L54.6114 23.1814L54.02 23.08ZM54.28 21.68L53.6951 21.5463L53.6933 21.5543L53.6917 21.5623L54.28 21.68ZM54.54 20.52L53.9556 20.3836L53.9537 20.3925L54.54 20.52ZM56.36 12.72V12.12H55.8839L55.7757 12.5837L56.36 12.72ZM58.7586 12.5718L55.1186 26.8518L56.2814 27.1482L59.9214 12.8682L58.7586 12.5718ZM55.7 26.4H52.26V27.6H55.7V26.4ZM52.8409 26.8497L50.9009 19.3497L49.7391 19.6503L51.6791 27.1503L52.8409 26.8497ZM50.8989 19.3421C50.8623 19.2083 50.8113 18.9984 50.7451 18.707L49.5749 18.973C49.642 19.2683 49.6977 19.4984 49.7411 19.6579L50.8989 19.3421ZM50.7503 18.7327C50.695 18.4285 50.6264 18.0992 50.5446 17.7451L49.3754 18.0149C49.4536 18.3541 49.5183 18.6648 49.5697 18.9473L50.7503 18.7327ZM50.5492 17.7667C50.4831 17.4231 50.4238 17.0999 50.3711 16.7972L49.1889 17.0028C49.2429 17.3134 49.3035 17.6436 49.3708 17.9933L50.5492 17.7667ZM50.3718 16.8014C50.3186 16.4821 50.2791 16.2384 50.253 16.0688L49.067 16.2512C49.0942 16.4283 49.1347 16.6779 49.1882 16.9986L50.3718 16.8014ZM49.0618 16.114C49.0514 16.2483 49.0177 16.465 48.9526 16.7776L50.1274 17.0224C50.1956 16.695 50.2419 16.4183 50.2582 16.206L49.0618 16.114ZM48.9489 16.7972C48.8962 17.0999 48.8369 17.4231 48.7708 17.7667L49.9492 17.9933C50.0165 17.6436 50.0771 17.3134 50.1311 17.0028L48.9489 16.7972ZM48.7717 17.7623C48.7056 18.0927 48.6396 18.4094 48.5737 18.7125L49.7463 18.9675C49.8137 18.6573 49.8811 18.334 49.9483 17.9977L48.7717 17.7623ZM48.5749 18.707C48.5086 18.999 48.4564 19.2207 48.4179 19.3745L49.5821 19.6655C49.6236 19.4993 49.6781 19.2677 49.7451 18.973L48.5749 18.707ZM48.4188 19.3708L46.4988 26.8508L47.6612 27.1492L49.5812 19.6692L48.4188 19.3708ZM47.08 26.4H43.64V27.6H47.08V26.4ZM44.2214 26.8518L40.5814 12.5718L39.4186 12.8682L43.0586 27.1482L44.2214 26.8518ZM40 13.32H42.98V12.12H40V13.32ZM42.3957 12.8563L44.2157 20.6563L45.3843 20.3837L43.5643 12.5837L42.3957 12.8563ZM44.2159 20.6574C44.2672 20.8753 44.3258 21.1482 44.3917 21.4777L45.5683 21.2423C45.5009 20.9051 45.4395 20.618 45.3841 20.3826L44.2159 20.6574ZM44.3926 21.4824C44.4583 21.7975 44.5241 22.1331 44.59 22.4893L45.77 22.2707C45.7026 21.9069 45.6351 21.5625 45.5674 21.2376L44.3926 21.4824ZM44.5908 22.4933C44.6563 22.8341 44.7152 23.1679 44.7675 23.4948L45.9525 23.3052C45.8981 22.9654 45.837 22.6192 45.7692 22.2667L44.5908 22.4933ZM44.7717 23.5177C44.8362 23.8402 44.8795 24.1089 44.9037 24.3263L46.0963 24.1937C46.0672 23.9311 46.0172 23.6264 45.9483 23.2823L44.7717 23.5177ZM46.0967 24.3228C46.1218 24.0842 46.16 23.8098 46.2118 23.4986L45.0282 23.3014C44.9734 23.6302 44.9315 23.9292 44.9033 24.1972L46.0967 24.3228ZM46.2125 23.4948C46.2646 23.1692 46.3232 22.8435 46.3883 22.5177L45.2117 22.2823C45.1435 22.6232 45.0821 22.9642 45.0275 23.3052L46.2125 23.4948ZM46.3892 22.5133C46.4562 22.165 46.5166 21.843 46.5703 21.5473L45.3897 21.3327C45.3368 21.6237 45.2771 21.9417 45.2108 22.2867L46.3892 22.5133ZM46.5663 21.5675C46.6316 21.2673 46.6874 21.0461 46.7335 20.8965L45.5865 20.5435C45.5259 20.7405 45.4618 20.9994 45.3937 21.3125L46.5663 21.5675ZM46.7407 20.871L48.8207 12.871L47.6593 12.569L45.5793 20.569L46.7407 20.871ZM48.24 13.32H51.1V12.12H48.24V13.32ZM50.5193 12.871L52.5993 20.871L53.7607 20.569L51.6807 12.569L50.5193 12.871ZM52.5954 20.8549C52.6345 21.0246 52.6872 21.2617 52.7537 21.5675L53.9263 21.3125C53.8594 21.005 53.8055 20.7621 53.7646 20.5851L52.5954 20.8549ZM52.7549 21.573C52.8199 21.8588 52.8852 22.1721 52.9508 22.5133L54.1292 22.2867C54.0615 21.9345 53.9935 21.6079 53.9251 21.307L52.7549 21.573ZM52.9508 22.5133C53.0163 22.8541 53.0752 23.1879 53.1275 23.5148L54.3125 23.3252C54.2581 22.9854 54.197 22.6392 54.1292 22.2867L52.9508 22.5133ZM53.1282 23.5186C53.1803 23.8313 53.2185 24.1 53.2437 24.3263L54.4363 24.1937C54.4081 23.94 54.3664 23.6487 54.3118 23.3214L53.1282 23.5186ZM54.4357 24.3315C54.474 24.0123 54.5321 23.6304 54.6109 23.1843L53.4291 22.9757C53.3479 23.4363 53.286 23.841 53.2443 24.1885L54.4357 24.3315ZM54.6114 23.1814C54.6904 22.7202 54.7761 22.2589 54.8683 21.7977L53.6917 21.5623C53.5972 22.0344 53.5096 22.5065 53.4286 22.9786L54.6114 23.1814ZM54.8649 21.8137C54.9718 21.3459 55.059 20.957 55.1263 20.6475L53.9537 20.3925C53.8876 20.6964 53.8015 21.0808 53.6951 21.5463L54.8649 21.8137ZM55.1243 20.6563L56.9443 12.8563L55.7757 12.5837L53.9557 20.3837L55.1243 20.6563ZM56.36 13.32H59.34V12.12H56.36V13.32ZM67.9053 16.46L67.6214 16.9886L67.6255 16.9907L67.9053 16.46ZM69.6053 18.14L69.0786 18.4273L69.0786 18.4273L69.6053 18.14ZM70.2053 22.28V22.88H70.8053V22.28H70.2053ZM63.1653 22.28V21.68H62.546L62.5656 22.299L63.1653 22.28ZM63.9053 24.26L63.4751 24.6783L63.481 24.6843L63.9053 24.26ZM67.8053 24.78L67.9413 25.3645L67.954 25.3613L67.8053 24.78ZM69.5853 24.12H70.1853V23.168L69.3264 23.5787L69.5853 24.12ZM69.5853 26.42L69.8536 26.9567L70.1853 26.7908V26.42H69.5853ZM67.8853 27L67.7676 26.4117L67.76 26.4132L67.7523 26.4149L67.8853 27ZM62.8453 26.6L62.5804 27.1384L62.5874 27.1417L62.8453 26.6ZM60.8653 24.74L60.3464 25.0413L60.3464 25.0413L60.8653 24.74ZM60.7853 18.44L60.252 18.165L60.2504 18.1683L60.7853 18.44ZM62.6053 16.52L62.3155 15.9947L62.3155 15.9947L62.6053 16.52ZM63.8853 18.56L63.4685 18.1283L63.461 18.1357L63.8853 18.56ZM63.2253 20.3L62.6275 20.2493L62.5723 20.9H63.2253V20.3ZM67.4053 20.3V20.9H68.0053V20.3H67.4053ZM67.1653 19.12L66.6127 19.3538L66.6165 19.3627L66.6205 19.3714L67.1653 19.12ZM66.4853 18.3L66.8131 17.7974L66.8131 17.7974L66.4853 18.3ZM65.3053 16.48C66.243 16.48 67.0072 16.6587 67.6214 16.9886L68.1892 15.9314C67.3634 15.4879 66.3943 15.28 65.3053 15.28V16.48ZM67.6255 16.9907C68.2535 17.3219 68.7347 17.7968 69.0786 18.4273L70.132 17.8527C69.676 17.0165 69.0238 16.3714 68.1852 15.9293L67.6255 16.9907ZM69.0786 18.4273C69.419 19.0514 69.6053 19.8466 69.6053 20.84H70.8053C70.8053 19.7001 70.5916 18.6953 70.132 17.8527L69.0786 18.4273ZM69.6053 20.84V22.28H70.8053V20.84H69.6053ZM70.2053 21.68H63.1653V22.88H70.2053V21.68ZM62.5656 22.299C62.5958 23.2489 62.8794 24.0655 63.4751 24.6782L64.3355 23.8418C63.9979 23.4945 63.7882 22.9911 63.765 22.261L62.5656 22.299ZM63.481 24.6843C64.099 25.3022 64.9262 25.58 65.8853 25.58V24.38C65.1644 24.38 64.6716 24.1778 64.3296 23.8357L63.481 24.6843ZM65.8853 25.58C66.6289 25.58 67.3155 25.5099 67.9412 25.3644L67.6694 24.1956C67.1485 24.3167 66.555 24.38 65.8853 24.38V25.58ZM67.954 25.3613C68.5704 25.2036 69.2006 24.9691 69.8442 24.6613L69.3264 23.5787C68.7433 23.8576 68.1869 24.0631 67.6566 24.1987L67.954 25.3613ZM68.9853 24.12V26.42H70.1853V24.12H68.9853ZM69.317 25.8833C68.8326 26.1255 68.3167 26.3018 67.7676 26.4117L68.003 27.5883C68.6539 27.4582 69.2714 27.2478 69.8536 26.9567L69.317 25.8833ZM67.7523 26.4149C67.2227 26.5353 66.5567 26.6 65.7453 26.6V27.8C66.6139 27.8 67.3746 27.7314 68.0183 27.5851L67.7523 26.4149ZM65.7453 26.6C64.7257 26.6 63.8498 26.4138 63.1033 26.0583L62.5874 27.1417C63.5209 27.5862 64.5782 27.8 65.7453 27.8V26.6ZM63.1102 26.0616C62.3788 25.7017 61.8061 25.1653 61.3842 24.4387L60.3464 25.0413C60.8845 25.968 61.6319 26.6716 62.5804 27.1384L63.1102 26.0616ZM61.3842 24.4387C60.9714 23.7278 60.7453 22.7995 60.7453 21.62H59.5453C59.5453 22.9471 59.7992 24.0989 60.3464 25.0413L61.3842 24.4387ZM60.7453 21.62C60.7453 20.4022 60.9489 19.4429 61.3203 18.7117L60.2504 18.1683C59.7684 19.1171 59.5453 20.2778 59.5453 21.62H60.7453ZM61.3186 18.715C61.709 17.9578 62.2351 17.4095 62.8952 17.0453L62.3155 15.9947C61.4289 16.4838 60.7416 17.2156 60.252 18.165L61.3186 18.715ZM62.8952 17.0453C63.5663 16.6751 64.3634 16.48 65.3053 16.48V15.28C64.1939 15.28 63.191 15.5116 62.3155 15.9947L62.8952 17.0453ZM65.3253 17.4C64.6079 17.4 63.975 17.6393 63.4686 18.1284L64.3021 18.9916C64.5689 18.734 64.896 18.6 65.3253 18.6V17.4ZM63.461 18.1357C62.9483 18.6485 62.7004 19.3891 62.6275 20.2493L63.8232 20.3507C63.8836 19.6376 64.0756 19.2182 64.3096 18.9843L63.461 18.1357ZM63.2253 20.9H67.4053V19.7H63.2253V20.9ZM68.0053 20.3C68.0053 19.7864 67.9116 19.3052 67.7101 18.8686L66.6205 19.3714C66.739 19.6281 66.8053 19.9336 66.8053 20.3H68.0053ZM67.7179 18.8862C67.5261 18.4329 67.2227 18.0646 66.8131 17.7974L66.1576 18.8026C66.3613 18.9354 66.5112 19.1138 66.6127 19.3538L67.7179 18.8862ZM66.8131 17.7974C66.3854 17.5185 65.8766 17.4 65.3253 17.4V18.6C65.7073 18.6 65.9719 18.6815 66.1576 18.8026L66.8131 17.7974ZM75.9017 27V27.6H76.5017V27H75.9017ZM72.9217 27H72.3217V27.6H72.9217V27ZM72.9217 11.8V11.2H72.3217V11.8H72.9217ZM75.9017 11.8H76.5017V11.2H75.9017V11.8ZM75.9017 26.4H72.9217V27.6H75.9017V26.4ZM73.5217 27V11.8H72.3217V27H73.5217ZM72.9217 12.4H75.9017V11.2H72.9217V12.4ZM75.3017 11.8V27H76.5017V11.8H75.3017ZM86.4155 25.64L86.9107 25.9788L86.9147 25.9728L86.4155 25.64ZM84.8555 26.8L85.0709 27.36L85.0709 27.36L84.8555 26.8ZM80.3155 27.04L80.4304 26.4511L80.4234 26.4497L80.4164 26.4486L80.3155 27.04ZM78.6755 26.56H78.0755V26.9608L78.4457 27.1142L78.6755 26.56ZM78.6755 24.1L78.9238 23.5538L78.0755 23.1682V24.1H78.6755ZM80.5755 24.76L80.4273 25.3414L80.5755 24.76ZM83.6155 24.76L83.2767 24.2648L83.2704 24.2691L83.2642 24.2736L83.6155 24.76ZM83.8355 23.58L83.3293 23.9021L83.3393 23.9178L83.3502 23.9329L83.8355 23.58ZM81.6355 22.36L81.3978 22.911L81.4054 22.9142L81.6355 22.36ZM79.9555 21.5L79.6226 21.9993L79.6333 22.0062L79.9555 21.5ZM78.9755 20.46L78.4422 20.7352L78.4461 20.7424L78.9755 20.46ZM79.8355 16.64L80.1604 17.1444L80.1604 17.1444L79.8355 16.64ZM84.9155 16.08L84.788 16.6663L84.788 16.6663L84.9155 16.08ZM86.8155 16.74L87.3685 16.9726L87.5919 16.4416L87.0704 16.1969L86.8155 16.74ZM85.9155 18.88L85.6718 19.4283L86.2312 19.6769L86.4685 19.1126L85.9155 18.88ZM84.8755 18.46L84.6722 19.0245L84.6722 19.0245L84.8755 18.46ZM83.8955 18.18L83.768 18.7663L83.7731 18.7674L83.8955 18.18ZM81.9355 18.26L81.6547 17.7297L81.648 17.7333L81.6413 17.7371L81.9355 18.26ZM81.7755 19.28L81.2902 19.6329L81.3086 19.6582L81.3295 19.6814L81.7755 19.28ZM82.4355 19.72L82.1671 20.2567L82.1758 20.2609L82.4355 19.72ZM83.8955 20.36L83.6647 20.9139L83.6706 20.9163L83.8955 20.36ZM85.5155 21.16L85.2001 21.6706L85.2113 21.6772L85.5155 21.16ZM86.5555 22.18L86.0366 22.4813L86.0424 22.4913L86.0486 22.501L86.5555 22.18ZM86.3355 23.76C86.3355 24.3959 86.1864 24.9019 85.9162 25.3072L86.9147 25.9728C87.3378 25.3381 87.5355 24.5908 87.5355 23.76H86.3355ZM85.9203 25.3012C85.6556 25.688 85.2441 26.0077 84.6401 26.24L85.0709 27.36C85.8535 27.059 86.482 26.6053 86.9107 25.9788L85.9203 25.3012ZM84.6401 26.24C84.0363 26.4722 83.2547 26.6 82.2755 26.6V27.8C83.3496 27.8 84.288 27.6611 85.0709 27.36L84.6401 26.24ZM82.2755 26.6C81.5411 26.6 80.9283 26.5483 80.4304 26.4511L80.2006 27.6289C80.7959 27.7451 81.4898 27.8 82.2755 27.8V26.6ZM80.4164 26.4486C79.9168 26.3633 79.4133 26.2164 78.9053 26.0058L78.4457 27.1142C79.031 27.3569 79.6208 27.5301 80.2145 27.6314L80.4164 26.4486ZM79.2755 26.56V24.1H78.0755V26.56H79.2755ZM78.4272 24.6462C79.0488 24.9288 79.7159 25.1601 80.4273 25.3414L80.7237 24.1786C80.075 24.0132 79.4755 23.8046 78.9238 23.5538L78.4272 24.6462ZM80.4273 25.3414C81.14 25.5231 81.7916 25.62 82.3755 25.62V24.42C81.9194 24.42 81.3709 24.3436 80.7237 24.1786L80.4273 25.3414ZM82.3755 25.62C82.9846 25.62 83.5642 25.5371 83.9668 25.2464L83.2642 24.2736C83.1867 24.3295 82.9396 24.42 82.3755 24.42V25.62ZM83.9543 25.2552C84.3526 24.9827 84.5955 24.5795 84.5955 24.08H83.3955C83.3955 24.1405 83.385 24.1907 83.2767 24.2648L83.9543 25.2552ZM84.5955 24.08C84.5955 23.7705 84.5043 23.4795 84.3207 23.2271L83.3502 23.9329C83.38 23.9738 83.3955 24.0162 83.3955 24.08H84.5955ZM84.3417 23.2579C84.1612 22.9743 83.8283 22.7467 83.4886 22.5565L82.9023 23.6035C83.0522 23.6875 83.161 23.7592 83.2361 23.8178C83.3155 23.8798 83.3338 23.9093 83.3293 23.9021L84.3417 23.2579ZM83.4886 22.5565C83.1235 22.352 82.5769 22.1011 81.8655 21.8058L81.4054 22.9142C82.1074 23.2055 82.6008 23.4347 82.9023 23.6035L83.4886 22.5565ZM81.8731 21.8091C81.2113 21.5236 80.6821 21.2512 80.2776 20.9938L79.6333 22.0062C80.1088 22.3088 80.6996 22.6097 81.3978 22.9109L81.8731 21.8091ZM80.2883 21.0008C79.9169 20.7532 79.6644 20.4767 79.5049 20.1776L78.4461 20.7424C78.7132 21.2433 79.114 21.6601 79.6227 21.9992L80.2883 21.0008ZM79.5086 20.1848C79.351 19.8793 79.2555 19.4669 79.2555 18.92H78.0555C78.0555 19.5997 78.1733 20.214 78.4423 20.7352L79.5086 20.1848ZM79.2555 18.92C79.2555 18.0905 79.5615 17.5301 80.1604 17.1444L79.5106 16.1356C78.5361 16.7632 78.0555 17.7229 78.0555 18.92H79.2555ZM80.1604 17.1444C80.8189 16.7203 81.7401 16.48 82.9755 16.48V15.28C81.5975 15.28 80.4254 15.5464 79.5106 16.1356L80.1604 17.1444ZM82.9755 16.48C83.6161 16.48 84.2199 16.5428 84.788 16.6663L85.0429 15.4937C84.3844 15.3505 83.6948 15.28 82.9755 15.28V16.48ZM84.788 16.6663C85.3514 16.7888 85.942 16.9928 86.5605 17.2831L87.0704 16.1969C86.3823 15.8739 85.7062 15.6379 85.0429 15.4937L84.788 16.6663ZM86.2624 16.5074L85.3624 18.6474L86.4685 19.1126L87.3685 16.9726L86.2624 16.5074ZM86.1592 18.3317C85.7873 18.1665 85.4271 18.0209 85.0787 17.8955L84.6722 19.0245C84.9905 19.1391 85.3236 19.2735 85.6718 19.4283L86.1592 18.3317ZM85.0787 17.8955C84.7212 17.7668 84.3675 17.6655 84.0178 17.5926L83.7731 18.7674C84.0635 18.8279 84.3631 18.9132 84.6722 19.0245L85.0787 17.8955ZM84.0229 17.5937C83.6719 17.5174 83.309 17.48 82.9355 17.48V18.68C83.2286 18.68 83.5057 18.7093 83.768 18.7663L84.0229 17.5937ZM82.9355 17.48C82.4585 17.48 82.0092 17.5421 81.6547 17.7297L82.2162 18.7903C82.3151 18.7379 82.5324 18.68 82.9355 18.68V17.48ZM81.6413 17.7371C81.2437 17.9607 81.0155 18.3379 81.0155 18.8H82.2155C82.2155 18.7845 82.2172 18.7783 82.217 18.7789C82.2167 18.78 82.2152 18.7848 82.2116 18.7909C82.2081 18.7969 82.2052 18.7996 82.2058 18.799C82.2069 18.798 82.2135 18.792 82.2296 18.7829L81.6413 17.7371ZM81.0155 18.8C81.0155 19.1063 81.1127 19.3887 81.2902 19.6329L82.2607 18.9271C82.2249 18.8779 82.2155 18.8404 82.2155 18.8H81.0155ZM81.3295 19.6814C81.5282 19.9022 81.8333 20.0897 82.1671 20.2567L82.7038 19.1833C82.3977 19.0303 82.2627 18.9245 82.2214 18.8786L81.3295 19.6814ZM82.1758 20.2609C82.5236 20.4278 83.0218 20.646 83.6647 20.9138L84.1262 19.8062C83.4891 19.5407 83.014 19.3322 82.6951 19.1791L82.1758 20.2609ZM83.6706 20.9163C84.2738 21.1601 84.7821 21.4122 85.2002 21.6705L85.8308 20.6495C85.3422 20.3478 84.7705 20.0666 84.1203 19.8037L83.6706 20.9163ZM85.2113 21.6772C85.5848 21.8969 85.8535 22.1659 86.0366 22.4813L87.0743 21.8787C86.7775 21.3674 86.3528 20.9564 85.8197 20.6428L85.2113 21.6772ZM86.0486 22.501C86.2221 22.7751 86.3355 23.1787 86.3355 23.76H87.5355C87.5355 23.0346 87.3955 22.3849 87.0624 21.859L86.0486 22.501ZM98.6169 17.32L98.1464 17.6924L98.149 17.6956L98.6169 17.32ZM99.2169 24.66L99.7684 24.8964L99.7697 24.8932L99.2169 24.66ZM97.7369 26.56L97.3992 26.064L97.3992 26.064L97.7369 26.56ZM94.1969 27L93.9951 27.5651L94.0013 27.5672L94.1969 27ZM93.2369 26.48L93.6117 26.0115L93.6117 26.0115L93.2369 26.48ZM92.5369 25.8L92.9978 25.4159L92.8179 25.2H92.5369V25.8ZM92.3769 25.8V25.2H91.6374L91.7897 25.9236L92.3769 25.8ZM92.4969 26.6L91.8996 26.6569L91.8999 26.6597L92.4969 26.6ZM92.5369 31.8V32.4H93.1369V31.8H92.5369ZM89.5569 31.8H88.9569V32.4H89.5569V31.8ZM89.5569 16.08V15.48H88.9569V16.08H89.5569ZM91.9769 16.08L92.5522 15.9098L92.4251 15.48H91.9769V16.08ZM92.3969 17.5L91.8215 17.6702L91.9486 18.1H92.3969V17.5ZM92.5369 17.5V18.1H92.854L93.0326 17.838L92.5369 17.5ZM93.2569 16.7L93.6474 17.1556L93.6535 17.1503L93.6594 17.1449L93.2569 16.7ZM94.2569 16.1L94.0503 15.5366L94.0441 15.539L94.2569 16.1ZM93.4369 18.58L93.0942 18.0875L93.0942 18.0875L93.4369 18.58ZM92.7569 19.56L92.1876 19.3702L92.1842 19.381L92.7569 19.56ZM92.5369 21.18L91.9369 21.1678V21.18H92.5369ZM92.7369 23.3L92.1576 23.4565L92.1588 23.4606L92.7369 23.3ZM93.4169 24.4L93.7893 23.9296L93.7893 23.9296L93.4169 24.4ZM95.8369 24.4L95.4447 23.9459L95.4447 23.9459L95.8369 24.4ZM96.4969 23.28L95.9218 23.109L95.9218 23.109L96.4969 23.28ZM96.2169 19.08L95.6991 19.3831L95.7035 19.3906L95.7081 19.398L96.2169 19.08ZM95.6369 16.48C96.6806 16.48 97.5005 16.8765 98.1464 17.6924L99.0873 16.9476C98.2133 15.8435 97.0465 15.28 95.6369 15.28V16.48ZM98.149 17.6956C98.7887 18.4924 99.1569 19.7348 99.1569 21.52H100.357C100.357 19.5985 99.965 18.0409 99.0848 16.9444L98.149 17.6956ZM99.1569 21.52C99.1569 22.7055 98.9843 23.6677 98.6641 24.4268L99.7697 24.8932C100.169 23.9456 100.357 22.8145 100.357 21.52H99.1569ZM98.6654 24.4236C98.3411 25.1803 97.9134 25.7139 97.3992 26.064L98.0746 27.056C98.8136 26.5528 99.3726 25.8197 99.7684 24.8964L98.6654 24.4236ZM97.3992 26.064C96.8811 26.4168 96.2745 26.6 95.5569 26.6V27.8C96.4926 27.8 97.3393 27.5566 98.0746 27.056L97.3992 26.064ZM95.5569 26.6C95.0862 26.6 94.7018 26.5394 94.3925 26.4328L94.0013 27.5672C94.4653 27.7272 94.9875 27.8 95.5569 27.8V26.6ZM94.3987 26.435C94.0781 26.3205 93.8188 26.1772 93.6117 26.0115L92.8621 26.9485C93.1882 27.2095 93.569 27.4129 93.9951 27.565L94.3987 26.435ZM93.6117 26.0115C93.3736 25.821 93.1697 25.6222 92.9978 25.4159L92.0759 26.1841C92.304 26.4578 92.5668 26.7123 92.8621 26.9485L93.6117 26.0115ZM92.5369 25.2H92.3769V26.4H92.5369V25.2ZM91.7897 25.9236C91.8381 26.1531 91.8749 26.3974 91.8996 26.6569L93.0942 26.5431C93.0656 26.2426 93.0224 25.9536 92.964 25.6764L91.7897 25.9236ZM91.8999 26.6597C91.9245 26.9066 91.9369 27.1534 91.9369 27.4H93.1369C93.1369 27.1133 93.1225 26.8267 93.0939 26.5403L91.8999 26.6597ZM91.9369 27.4V31.8H93.1369V27.4H91.9369ZM92.5369 31.2H89.5569V32.4H92.5369V31.2ZM90.1569 31.8V16.08H88.9569V31.8H90.1569ZM89.5569 16.68H91.9769V15.48H89.5569V16.68ZM91.4015 16.2502L91.8215 17.6702L92.9722 17.3298L92.5522 15.9098L91.4015 16.2502ZM92.3969 18.1H92.5369V16.9H92.3969V18.1ZM93.0326 17.838C93.2017 17.59 93.4059 17.3625 93.6474 17.1556L92.8664 16.2444C92.5479 16.5175 92.272 16.8234 92.0411 17.162L93.0326 17.838ZM93.6594 17.1449C93.8789 16.9463 94.1463 16.7837 94.4697 16.661L94.0441 15.539C93.5942 15.7097 93.1948 15.947 92.8543 16.2551L93.6594 17.1449ZM94.4634 16.6633C94.7845 16.5456 95.1723 16.48 95.6369 16.48V15.28C95.0614 15.28 94.5293 15.3611 94.0503 15.5367L94.4634 16.6633ZM94.6769 17.66C94.0809 17.66 93.5339 17.7816 93.0942 18.0875L93.7795 19.0725C93.9532 18.9517 94.2328 18.86 94.6769 18.86V17.66ZM93.0942 18.0875C92.658 18.3909 92.3652 18.8377 92.1877 19.3703L93.3261 19.7497C93.4419 19.4023 93.6025 19.1957 93.7795 19.0725L93.0942 18.0875ZM92.1842 19.381C92.0282 19.8804 91.951 20.4814 91.937 21.1678L93.1368 21.1922C93.1494 20.5719 93.2189 20.093 93.3296 19.739L92.1842 19.381ZM91.9369 21.18V21.5H93.1369V21.18H91.9369ZM91.9369 21.5C91.9369 22.2409 92.0064 22.8969 92.1577 23.4565L93.3161 23.1435C93.2007 22.7164 93.1369 22.1724 93.1369 21.5H91.9369ZM92.1588 23.4606C92.3185 24.0355 92.6045 24.5221 93.0445 24.8704L93.7893 23.9296C93.5892 23.7712 93.422 23.5245 93.315 23.1394L92.1588 23.4606ZM93.0445 24.8704C93.5015 25.2323 94.0808 25.38 94.7169 25.38V24.18C94.2596 24.18 93.9722 24.0744 93.7893 23.9296L93.0445 24.8704ZM94.7169 25.38C95.2884 25.38 95.8087 25.2171 96.229 24.8541L95.4447 23.9459C95.2784 24.0895 95.052 24.18 94.7169 24.18V25.38ZM96.229 24.8541C96.6333 24.5049 96.9031 24.019 97.072 23.451L95.9218 23.109C95.7973 23.5277 95.6271 23.7884 95.4447 23.9459L96.229 24.8541ZM97.072 23.451C97.24 22.8858 97.3169 22.2246 97.3169 21.48H96.1169C96.1169 22.1487 96.0471 22.6875 95.9218 23.109L97.072 23.451ZM97.3169 21.48C97.3169 20.3703 97.147 19.4361 96.7257 18.762L95.7081 19.398C95.9534 19.7906 96.1169 20.4564 96.1169 21.48H97.3169ZM96.7347 18.7769C96.2929 18.0221 95.567 17.66 94.6769 17.66V18.86C95.2001 18.86 95.5009 19.0446 95.6991 19.3831L96.7347 18.7769ZM100.562 16.08V15.48H99.676L100.005 16.303L100.562 16.08ZM103.823 16.08L104.391 15.8892L104.254 15.48H103.823V16.08ZM105.883 22.22L106.452 22.0303L106.451 22.0292L105.883 22.22ZM106.043 22.82L105.454 22.9377L105.458 22.9563L105.463 22.9746L106.043 22.82ZM106.163 23.44L105.567 23.5144L105.569 23.5326L105.573 23.5506L106.163 23.44ZM106.243 24.12L105.643 24.1533L105.675 24.72H106.243V24.12ZM106.303 24.12V24.72H106.837L106.899 24.1888L106.303 24.12ZM106.463 23.14L105.88 22.9945L105.878 23.0035L105.876 23.0125L106.463 23.14ZM106.723 22.22L106.153 22.0325L106.151 22.0381L106.723 22.22ZM108.743 16.08V15.48H108.308L108.173 15.8925L108.743 16.08ZM111.943 16.08L112.504 16.2907L112.808 15.48H111.943V16.08ZM107.323 28.4L107.884 28.6107L107.884 28.6107L107.323 28.4ZM106.223 30.28L105.775 29.8799L105.769 29.8866L106.223 30.28ZM104.683 31.42L104.92 31.9708L104.92 31.9708L104.683 31.42ZM101.882 31.74L101.976 31.1473L101.962 31.1452L101.949 31.1437L101.882 31.74ZM101.243 31.64H100.643V32.125L101.117 32.2267L101.243 31.64ZM101.243 29.28L101.35 28.6897L100.643 28.5611V29.28H101.243ZM101.763 29.36L101.683 29.9548L101.688 29.9554L101.763 29.36ZM103.483 29.14L103.187 28.6176L103.177 28.6234L103.483 29.14ZM104.243 28.42L103.747 28.0819L103.74 28.0922L104.243 28.42ZM104.723 27.46L105.29 27.6563L105.292 27.6497L104.723 27.46ZM104.903 26.92L105.472 27.1097L105.541 26.9011L105.46 26.697L104.903 26.92ZM100.562 16.68H103.823V15.48H100.562V16.68ZM103.254 16.2708L105.314 22.4108L106.451 22.0292L104.391 15.8892L103.254 16.2708ZM105.313 22.4097C105.372 22.5869 105.419 22.7629 105.454 22.9377L106.631 22.7023C106.586 22.4771 106.526 22.2531 106.452 22.0303L105.313 22.4097ZM105.463 22.9746C105.509 23.1473 105.544 23.3271 105.567 23.5144L106.758 23.3656C106.728 23.1262 106.683 22.8927 106.622 22.6654L105.463 22.9746ZM105.573 23.5506C105.608 23.7358 105.631 23.9365 105.643 24.1533L106.842 24.0867C106.827 23.8235 106.797 23.5708 106.752 23.3294L105.573 23.5506ZM106.243 24.72H106.303V23.52H106.243V24.72ZM106.899 24.1888C106.937 23.8597 106.987 23.5527 107.049 23.2675L105.876 23.0125C105.805 23.3406 105.748 23.687 105.706 24.0512L106.899 24.1888ZM107.045 23.2855C107.122 22.9769 107.205 22.6824 107.294 22.4019L106.151 22.0381C106.053 22.3442 105.963 22.6631 105.88 22.9945L107.045 23.2855ZM107.292 22.4075L109.312 16.2675L108.173 15.8925L106.153 22.0325L107.292 22.4075ZM108.743 16.68H111.943V15.48H108.743V16.68ZM111.381 15.8693L106.761 28.1893L107.884 28.6107L112.504 16.2907L111.381 15.8693ZM106.761 28.1893C106.502 28.8781 106.171 29.4374 105.775 29.8799L106.67 30.6801C107.18 30.1092 107.583 29.4152 107.884 28.6107L106.761 28.1893ZM105.769 29.8866C105.385 30.3288 104.945 30.6533 104.445 30.8692L104.92 31.9708C105.594 31.68 106.18 31.2445 106.676 30.6734L105.769 29.8866ZM104.445 30.8692C103.939 31.0874 103.381 31.2 102.763 31.2V32.4C103.531 32.4 104.252 32.2593 104.92 31.9708L104.445 30.8692ZM102.763 31.2C102.452 31.2 102.191 31.1813 101.976 31.1473L101.789 32.3327C102.081 32.3787 102.407 32.4 102.763 32.4V31.2ZM101.949 31.1437C101.724 31.1187 101.531 31.0882 101.368 31.0533L101.117 32.2267C101.327 32.2718 101.561 32.308 101.816 32.3363L101.949 31.1437ZM101.843 31.64V29.28H100.643V31.64H101.843ZM101.135 29.8703C101.294 29.8992 101.477 29.9272 101.683 29.9547L101.842 28.7653C101.648 28.7394 101.485 28.7142 101.35 28.6897L101.135 29.8703ZM101.688 29.9554C101.927 29.9853 102.172 30 102.423 30V28.8C102.219 28.8 102.024 28.7881 101.837 28.7646L101.688 29.9554ZM102.423 30C102.92 30 103.384 29.8951 103.788 29.6566L103.177 28.6234C102.994 28.7316 102.751 28.8 102.423 28.8V30ZM103.778 29.6623C104.171 29.4398 104.495 29.1317 104.745 28.7478L103.74 28.0922C103.59 28.3216 103.407 28.4935 103.187 28.6177L103.778 29.6623ZM104.738 28.758C104.969 28.4193 105.153 28.0514 105.289 27.6563L104.156 27.2637C104.052 27.5619 103.916 27.834 103.747 28.082L104.738 28.758ZM105.292 27.6497L105.472 27.1097L104.333 26.7303L104.153 27.2703L105.292 27.6497ZM105.46 26.697L101.12 15.857L100.005 16.303L104.345 27.143L105.46 26.697Z" fill="black" mask="url(#path-5-outside-1_134_4)"/>
<defs>
<linearGradient id="paint0_linear_134_4" x1="20.7663" y1="31.9007" x2="29.0222" y2="0.480369" gradientUnits="userSpaceOnUse">
<stop stop-color="#2A6EDB"/>
<stop offset="1" stop-color="#5385D4"/>
</linearGradient>
</defs>
</svg>
